<svg xmlns="http://www.w3.org/2000/svg" width="2880" height="1680" viewBox="0 0 2880 1680">
  <defs>
    <linearGradient id="bg" x1="0%" y1="0%" x2="100%" y2="100%">
      <stop offset="0%" style="stop-color:#1a0a15"/>
      <stop offset="40%" style="stop-color:#2d1522"/>
      <stop offset="100%" style="stop-color:#1a1a2e"/>
    </linearGradient>
    <linearGradient id="accent" x1="0%" y1="0%" x2="100%" y2="0%">
      <stop offset="0%" style="stop-color:#D4366E;stop-opacity:0.3"/>
      <stop offset="100%" style="stop-color:#FF6B9D;stop-opacity:0.1"/>
    </linearGradient>
  </defs>
  <rect width="2880" height="1680" fill="url(#bg)"/>
  <circle cx="2200" cy="400" r="600" fill="url(#accent)"/>
  <circle cx="400" cy="1200" r="400" fill="url(#accent)" opacity="0.5"/>
  <!-- Grid pattern -->
  <g stroke="rgba(255,255,255,0.03)" stroke-width="1">
    <line x1="0" y1="0" x2="2880" y2="1680"/>
    <line x1="480" y1="0" x2="2880" y2="1200"/>
    <line x1="960" y1="0" x2="2880" y2="720"/>
    <line x1="0" y1="480" x2="2400" y2="1680"/>
    <line x1="0" y1="960" x2="1920" y2="1680"/>
  </g>
  <!-- Chart lines -->
  <polyline points="200,1200 600,1100 900,1000 1100,900 1300,850 1500,750 1700,650 1900,700 2100,550 2300,500 2500,450 2700,400" fill="none" stroke="rgba(212,54,110,0.2)" stroke-width="3"/>
  <polyline points="200,1300 500,1250 800,1150 1000,1100 1200,1050 1400,1000 1600,900 1800,950 2000,800 2200,750 2400,700 2600,650" fill="none" stroke="rgba(255,107,157,0.15)" stroke-width="2"/>
</svg>
